<?xml version="1.0" encoding="UTF-8"?>
<svg width="256px" height="53px" viewBox="0 0 256 53" version="1.1" xmlns="http://www.w3.org/2000/svg" xmlns:xlink="http://www.w3.org/1999/xlink">
    <!-- Generator: Sketch 61.2 (89653) - https://sketch.com -->
    <title>1_Logo_Primary_Horizontal</title>
    <desc>Created with Sketch.</desc>
    <g id="Technology-Services" stroke="none" stroke-width="1" fill="none" fill-rule="evenodd">
        <g id="1_Logo_Primary_Horizontal" transform="translate(-23.000000, -23.000000)">
            <rect id="Rectangle" x="0" y="0" width="302.616119" height="99.961824"></rect>
            <path d="M69.6765642,36.0349947 L64.369035,32.9692471 L53.9766702,26.9703075 L48.6670201,23.9045599 C48.0969536,23.5746724 47.3940326,23.5746724 46.8239661,23.9045599 L45.0530223,24.9268293 L41.5132556,26.9703075 L38.8197243,28.5259809 L25.4178155,36.3266172 C25.3050501,36.3929094 25.2358041,36.513943 25.2358041,36.6447508 C25.2358041,36.7755586 25.3050501,36.8965922 25.4178155,36.9628844 C27.2460233,38.0137858 29.0572641,39.0360551 30.8875928,40.0911983 C31.0018309,40.1569021 31.1423897,40.1569021 31.2566278,40.0911983 C36.7338282,36.9098621 41.4114528,34.2364793 46.8197243,31.1018028 C47.390447,30.7715364 48.0941765,30.7715364 48.6648993,31.1018028 L63.4443266,39.6341463 C64.0154164,39.9623489 64.3679429,40.5703763 64.369035,41.2290562 L64.369035,58.388123 C64.3670895,59.0443532 64.0165574,59.6501114 63.4485684,59.9787911 L61.1208908,61.3255567 L54.8886532,64.9236479 L47.9321315,68.9416755 C47.8182431,69.0071762 47.7479167,69.1284287 47.747614,69.2598091 L47.747614,75.6097561 C47.747698,75.7412882 47.8179825,75.8627733 47.9319683,75.9284081 C48.0459541,75.994043 48.1863055,75.9938453 48.300106,75.9278897 L61.1240721,68.5249205 L64.369035,66.6479321 L67.3552492,64.9236479 L69.6797455,63.5811241 C70.2484605,63.2530313 70.599542,62.6470217 70.6012725,61.990456 L70.6012725,37.630965 C70.6001218,36.9720239 70.2476619,36.3637073 69.6765642,36.0349947 Z" id="Path" fill="#EE2938" fill-rule="nonzero"></path>
            <path d="M43.135737,51.5493107 C36.854719,47.921527 30.7529162,44.378579 24.4655355,40.747614 C24.3515814,40.6818212 24.2112158,40.6816815 24.097131,40.7472475 C23.9830461,40.8128135 23.912503,40.934165 23.911983,41.0657476 L23.911983,46.5609756 C23.9128402,47.2172217 24.2631718,47.8233318 24.8313892,48.1516437 L36.9034995,55.1431601 C37.4717169,55.471472 37.8220485,56.0775821 37.8229056,56.7338282 L37.8229056,71.6171792 C37.8229742,72.2783537 38.1769992,72.8888952 38.7507953,73.2173913 L43.5037116,75.9342524 C43.6174466,75.9996658 43.7574074,75.9995721 43.8710547,75.9340064 C43.984702,75.8684406 44.0548413,75.7473227 44.0551432,75.6161188 L44.0551432,53.145281 C44.0551432,52.4874326 43.7047941,51.8793691 43.135737,51.5493107 Z" id="Path" fill="#EE2938" fill-rule="nonzero"></path>
            <path d="M82.8069989,36.5599152 L87.3944857,36.5599152 C87.6986175,36.5599152 87.9687714,36.7541613 88.0657476,37.0424178 L94.5556734,56.3626723 L101.007423,37.0434783 C101.104033,36.7548028 101.374273,36.5599152 101.678685,36.5599152 L106.265111,36.5599152 C106.496856,36.5599152 106.713876,36.673552 106.846205,36.8638012 C106.978534,37.0540503 107.009436,37.2969969 106.92895,37.514316 L97.7645811,62.2481442 C97.6617172,62.5258852 97.3969196,62.7105087 97.1007423,62.7105087 L91.9724284,62.7105087 C91.674699,62.7120932 91.4077481,62.5273462 91.3043478,62.2481442 L82.1431601,37.514316 C82.0626739,37.2969969 82.0935766,37.0540503 82.2259054,36.8638012 C82.3582343,36.673552 82.5752542,36.5599152 82.8069989,36.5599152 Z" id="Path" fill="#0F2233" fill-rule="nonzero"></path>
            <path d="M109.677625,54.78579 C110.138918,56.9777306 112.061506,58.4008484 114.752916,58.4008484 C116.648873,58.4008457 118.521014,57.9784546 120.233298,57.164369 C120.452611,57.0564711 120.712123,57.069638 120.919389,57.1991794 C121.126655,57.3287208 121.252209,57.5562197 121.251326,57.8006363 L121.251326,61.1940615 C121.249061,61.4744829 121.083254,61.7277533 120.827147,61.8419936 C119.160127,62.6139979 116.872747,63.135737 114.324496,63.135737 C108.634146,63.135737 104.443266,59.097561 104.443266,53.1378579 C104.443266,47.52386 108.480382,43.1792153 114.016967,43.1792153 C119.553552,43.1792153 122.97667,47.3319194 122.97667,52.2916225 C122.965982,52.9353916 122.903569,53.5772603 122.790032,54.2110286 C122.728843,54.5479871 122.434725,54.7924892 122.092259,54.7910923 L109.677625,54.78579 Z M110.632025,50.8261139 L117.100742,50.8261139 C117.330054,50.8254234 117.544993,50.7142881 117.678099,50.5275606 C117.811206,50.340833 117.846165,50.1014016 117.772004,49.8844115 C117.287381,48.4464475 115.83351,47.5185578 113.981972,47.5185578 C112.130435,47.5185578 110.632025,48.4962884 109.987275,49.8250265 C109.886366,50.04468 109.904803,50.3006836 110.036147,50.5036101 C110.16749,50.7065367 110.393492,50.8281948 110.635207,50.8261139 L110.632025,50.8261139 Z" id="Shape" fill="#0F2233" fill-rule="nonzero"></path>
            <path d="M130.199364,45.980912 C131.209968,44.3711559 132.767762,43.2354189 135.04878,43.1760339 C138.886532,43.0774125 142.004242,46.2788971 142.004242,50.1177094 L142.004242,61.9946978 C142.004242,62.3859239 141.68709,62.7030753 141.295864,62.7030753 L137.444327,62.7030753 C137.053101,62.7030753 136.735949,62.3859239 136.735949,61.9946978 L136.735949,51.8250265 C136.735949,49.7104984 135.463415,48.2873807 133.467656,48.2873807 C131.545069,48.2873807 130.314952,49.5599152 130.199364,51.5949099 L130.199364,61.9989396 C130.199364,62.3901657 129.882212,62.7073171 129.490986,62.7073171 L125.678685,62.7073171 C125.287459,62.7073171 124.970308,62.3901657 124.970308,61.9989396 L124.970308,44.2661718 C124.970308,44.0783958 125.044974,43.898326 125.177851,43.7656478 C125.310728,43.6329696 125.490909,43.5585732 125.678685,43.5588547 L129.490986,43.5588547 C129.678762,43.5585732 129.858943,43.6329696 129.991821,43.7656478 C130.124698,43.898326 130.199364,44.0783958 130.199364,44.2661718 L130.199364,45.980912 Z" id="Path" fill="#0F2233" fill-rule="nonzero"></path>
            <path d="M146.28526,61.9989396 L146.28526,48.019088 L144.07105,48.019088 C143.883176,48.019088 143.702998,47.9444556 143.570151,47.811609 C143.437305,47.6787625 143.362672,47.4985839 143.362672,47.3107105 L143.362672,44.2661718 C143.362672,44.0783958 143.437338,43.898326 143.570215,43.7656478 C143.703093,43.6329696 143.883274,43.5585732 144.07105,43.5588547 L146.592789,43.5588547 L146.592789,37.1474019 C146.592886,36.8165433 146.821672,36.5296805 147.144221,36.4559915 L150.650053,36.4740191 C151.127253,36.4337222 151.514316,36.7104984 151.514316,37.164369 L151.514316,43.5588547 L154.036055,43.5588547 C154.223831,43.5585732 154.404012,43.6329696 154.53689,43.7656478 C154.669767,43.898326 154.744433,44.0783958 154.744433,44.2661718 L154.744433,47.3107105 C154.744433,47.7019366 154.427281,48.019088 154.036055,48.019088 L151.514316,48.019088 L151.514316,61.9989396 C151.514316,62.3901657 151.197165,62.7073171 150.805938,62.7073171 L146.988335,62.7073171 C146.599181,62.7044042 146.285249,62.3881043 146.28526,61.9989396 L146.28526,61.9989396 Z" id="Path" fill="#0F2233" fill-rule="nonzero"></path>
            <path d="M168.460233,60.3234358 C167.49947,61.9766702 165.845175,63.1304348 163.423118,63.1304348 C159.386002,63.1304348 156.732768,60.0551432 156.732768,55.9395546 L156.732768,44.2661718 C156.732768,44.0783958 156.807434,43.898326 156.940311,43.7656478 C157.073188,43.6329696 157.253369,43.5585732 157.441145,43.5588539 L161.258749,43.5588539 C161.446341,43.5588539 161.62625,43.6333754 161.758897,43.7660231 C161.891545,43.8986708 161.966066,44.0785796 161.966066,44.2661718 L161.966066,54.4400848 C161.966066,56.592789 163.197243,58.0159067 165.196182,58.0159067 C167.11877,58.0159067 168.348887,56.7083775 168.464475,54.709438 L168.464475,44.2661718 C168.464475,44.0783958 168.539141,43.898326 168.672018,43.7656478 C168.804895,43.6329696 168.985077,43.5585732 169.172853,43.5588539 L172.990456,43.5588539 C173.178048,43.5588539 173.357957,43.6333754 173.490605,43.7660231 C173.623252,43.8986708 173.697773,44.0785796 173.697773,44.2661718 L173.697773,61.9989396 C173.697773,62.3897519 173.381268,62.706732 172.990456,62.7073171 L169.172853,62.7073171 C168.781626,62.7073171 168.464475,62.3901657 168.464475,61.9989396 L168.460233,60.3234358 Z" id="Path" fill="#0F2233" fill-rule="nonzero"></path>
            <path d="M181.69035,45.6352068 C182.613998,44.2120891 184.075292,43.173913 186.227996,43.173913 C186.465536,43.173913 186.776246,43.1855779 187.076352,43.2099682 C187.443822,43.240327 187.726553,43.5475027 187.726416,43.9162248 L187.726416,47.8515376 C187.727651,48.0719448 187.625618,48.2802192 187.450699,48.4143241 C187.27578,48.5484289 187.048157,48.5928901 186.835631,48.5344645 C186.211164,48.3650123 185.566432,48.2818787 184.919406,48.2873807 C183.074231,48.2873807 181.804878,49.5599152 181.68929,51.5949099 L181.68929,61.9989396 C181.689571,62.1867154 181.615175,62.3668968 181.482496,62.4997739 C181.349818,62.632651 181.169748,62.7073171 180.981972,62.7073171 L177.164369,62.7073171 C176.773143,62.7073171 176.455992,62.3901657 176.455992,61.9989396 L176.455992,44.2661718 C176.455992,44.0783958 176.530658,43.898326 176.663535,43.7656478 C176.796412,43.6329696 176.976593,43.5585732 177.164369,43.5588547 L180.981972,43.5588547 C181.169651,43.5585727 181.349724,43.6330028 181.482433,43.7657117 C181.615141,43.8984206 181.689572,44.0784933 181.68929,44.2661718 L181.69035,45.6352068 Z" id="Path" fill="#0F2233" fill-rule="nonzero"></path>
            <path d="M193.657476,54.78579 C194.11983,56.9777306 196.042418,58.4008484 198.733828,58.4008484 C200.629458,58.4009726 202.501283,57.9785714 204.21315,57.164369 C204.432554,57.0559688 204.692438,57.0688751 204.900023,57.1984805 C205.107607,57.3280859 205.233303,57.5559165 205.232238,57.8006363 L205.232238,61.1940615 C205.23024,61.4745637 205.064347,61.7279658 204.808059,61.8419936 C203.141039,62.6139979 200.853659,63.135737 198.306469,63.135737 C192.615058,63.135737 188.424178,59.097561 188.424178,53.1378579 C188.424178,47.52386 192.462354,43.1792153 197.99894,43.1792153 C203.535525,43.1792153 206.957582,47.3319194 206.957582,52.2916225 C206.947421,52.9354214 206.885003,53.5773325 206.770944,54.2110286 C206.710221,54.5478228 206.416453,54.7924056 206.074231,54.7910923 L193.657476,54.78579 Z M194.611877,50.826087 L201.080594,50.826087 C201.309912,50.8252891 201.524835,50.7141837 201.658085,50.52755 C201.791335,50.3409162 201.826628,50.1015618 201.752916,49.8844115 C201.268293,48.4464475 199.814422,47.5185578 197.962884,47.5185578 C196.111347,47.5185578 194.611877,48.4962884 193.967126,49.8250265 C193.866134,50.0448522 193.884681,50.3010736 194.01628,50.5040625 C194.147879,50.7070514 194.374217,50.8285613 194.616119,50.826087 L194.611877,50.826087 Z" id="Shape" fill="#0F2233" fill-rule="nonzero"></path>
            <path d="M208.951219,37.2682927 C208.950938,37.0805169 209.025334,36.9003354 209.158013,36.7674583 C209.290691,36.6345812 209.470761,36.5599152 209.658537,36.5599152 L218.640509,36.5599152 C226.600212,36.5599152 231.559915,41.9819724 231.559915,49.6330859 C231.559915,57.2841994 226.600212,62.7073171 218.640509,62.7073171 L209.658537,62.7073171 C209.470761,62.7073171 209.290691,62.632651 209.158013,62.4997739 C209.025334,62.3668968 208.950938,62.1867154 208.951219,61.9989396 L208.951219,37.2682927 Z M214.410392,41.8282078 L214.410392,57.4390244 L218.602333,57.4390244 C223.330859,57.4390244 225.907741,54.0943796 225.907741,49.6330859 C225.907741,45.2120891 223.330859,41.8282078 218.602333,41.8282078 L214.410392,41.8282078 Z" id="Shape" fill="#0F2233" fill-rule="nonzero"></path>
            <path d="M236.154825,36.5599152 C237.851538,36.5599152 239.04878,37.8621421 239.04878,39.4899258 C239.04878,41.1177094 237.854719,42.3849417 236.154825,42.3849417 C234.490986,42.3849417 233.26087,41.1177094 233.26087,39.4899258 C233.26087,37.8621421 234.490986,36.5599152 236.154825,36.5599152 Z M238.063627,62.7168643 L234.246023,62.7168643 C234.058247,62.7168643 233.878178,62.642195 233.745499,62.5093179 C233.612821,62.3764408 233.538425,62.1962594 233.538705,62.0084836 L233.538705,44.2767762 C233.538425,44.0890004 233.612821,43.908819 233.745499,43.7759419 C233.878178,43.6430648 234.058247,43.5683987 234.246023,43.5683987 L238.063627,43.5683987 C238.454853,43.5683987 238.772004,43.8855501 238.772004,44.2767762 L238.772004,62.0084836 C238.772004,62.196725 238.697082,62.3772258 238.563776,62.5101335 C238.43047,62.6430411 238.249746,62.7174247 238.061506,62.7168643 L238.063627,62.7168643 Z" id="Shape" fill="#0F2233" fill-rule="nonzero"></path>
            <path d="M246.400848,44.0307529 L250.694592,56.2089077 L255.026511,44.028632 C255.126776,43.746468 255.394083,43.5582059 255.693531,43.558853 L259.703075,43.558853 C259.934637,43.5591949 260.151368,43.6728591 260.283308,43.8631562 C260.415247,44.0534533 260.445684,44.2962817 260.364793,44.5132556 L253.636267,62.2481442 C253.531939,62.5230716 253.268606,62.7049567 252.974549,62.7051962 L248.453871,62.7051962 C248.159451,62.7051962 247.895884,62.522625 247.792153,62.2470838 L241.097561,44.514316 C241.016605,44.2971667 241.04716,44.0541334 241.179349,43.8637815 C241.311538,43.6734297 241.52859,43.5599082 241.760339,43.5599152 L245.732768,43.5599152 C246.032779,43.5592936 246.300545,43.7480047 246.400848,44.0307529 L246.400848,44.0307529 Z" id="Path" fill="#0F2233" fill-rule="nonzero"></path>
            <path d="M265.400848,54.78579 C265.862142,56.9777306 267.78473,58.4008484 270.47614,58.4008484 C272.37177,58.4009726 274.243594,57.9785714 275.955461,57.164369 C276.174866,57.0559688 276.43475,57.0688751 276.642334,57.1984805 C276.849919,57.3280859 276.975615,57.5559165 276.974549,57.8006363 L276.974549,61.1940615 C276.972552,61.4745637 276.806658,61.7279658 276.550371,61.8419936 C274.883351,62.6139979 272.59597,63.135737 270.04878,63.135737 C264.358431,63.135737 260.16649,59.097561 260.16649,53.1378579 C260.16649,47.52386 264.204666,43.1792153 269.741251,43.1792153 C275.277837,43.1792153 278.699894,47.3319194 278.699894,52.2916225 C278.689733,52.9354214 278.627315,53.5773325 278.513256,54.2110286 C278.452533,54.5478228 278.158765,54.7924056 277.816543,54.7910923 L265.400848,54.78579 Z M266.355249,50.8261139 L272.823966,50.8261139 C273.053285,50.8252891 273.268207,50.7141837 273.401457,50.52755 C273.534707,50.3409162 273.57,50.1015618 273.496288,49.8844115 C273.011665,48.4464475 271.557794,47.5185578 269.706257,47.5185578 C267.854719,47.5185578 266.35631,48.4962884 265.710498,49.8250265 C265.60959,50.04468 265.628027,50.3006836 265.759371,50.5036101 C265.890714,50.7065367 266.116716,50.8281948 266.358431,50.8261139 L266.355249,50.8261139 Z" id="Shape" fill="#0F2233" fill-rule="nonzero"></path>
        </g>
    </g>
</svg>